<svg xmlns="http://www.w3.org/2000/svg" width="1200" height="900" viewBox="0 0 1200 900" role="img" aria-label="Indian operations map showing Cochin, Madurai, Bombay, Gujarat, Jaipur, Delhi, Kolkata, Siliguri and Vizag">
  <defs>
    <linearGradient id="bg" x1="0" y1="0" x2="1" y2="1">
      <stop offset="0" stop-color="#f8fafc"/>
      <stop offset="0.5" stop-color="#eef3f8"/>
      <stop offset="1" stop-color="#ffffff"/>
    </linearGradient>
    <linearGradient id="india" x1="0" y1="0" x2="1" y2="1">
      <stop offset="0" stop-color="#0f2c49"/>
      <stop offset="0.58" stop-color="#1d6f8e"/>
      <stop offset="1" stop-color="#113b61"/>
    </linearGradient>
    <filter id="shadow" x="-20%" y="-20%" width="140%" height="140%">
      <feDropShadow dx="0" dy="22" stdDeviation="18" flood-color="#0f172a" flood-opacity="0.22"/>
    </filter>
  </defs>
  <rect width="1200" height="900" fill="url(#bg)"/>
  <path d="M0 0h1200v900H0z" fill="none"/>
  <g opacity="0.35" stroke="#0f172a" stroke-width="1">
    <path d="M0 88h1200M0 176h1200M0 264h1200M0 352h1200M0 440h1200M0 528h1200M0 616h1200M0 704h1200"/>
    <path d="M88 0v800M176 0v800M264 0v800M352 0v800M440 0v800M528 0v800M616 0v800M704 0v800M792 0v800M880 0v800M968 0v800M1056 0v800"/>
  </g>
  <polygon filter="url(#shadow)" fill="url(#india)" points="552,92 626,131 664,201 735,232 713,335 779,426 705,508 671,598 624,792 560,662 489,588 438,487 367,409 420,317 374,226 477,183"/>
  <text x="600" y="420" text-anchor="middle" font-family="Arial, sans-serif" font-size="96" font-weight="900" letter-spacing="10" fill="#ffffff" opacity="0.42">INDIA</text>
  <g font-family="Arial, sans-serif" font-size="22" font-weight="900" letter-spacing="1.4" fill="#ffffff">
    <g transform="translate(408 624)"><circle r="12" fill="#d9a441" stroke="#fff" stroke-width="4"/><text x="22" y="8" fill="#07111f">COCHIN</text></g>
    <g transform="translate(516 624)"><circle r="12" fill="#d9a441" stroke="#fff" stroke-width="4"/><text x="22" y="8" fill="#07111f">MADURAI</text></g>
    <g transform="translate(336 456)"><circle r="12" fill="#d9a441" stroke="#fff" stroke-width="4"/><text x="22" y="8" fill="#07111f">BOMBAY</text></g>
    <g transform="translate(252 360)"><circle r="12" fill="#d9a441" stroke="#fff" stroke-width="4"/><text x="22" y="8" fill="#07111f">GUJARAT</text></g>
    <g transform="translate(432 272)"><circle r="12" fill="#d9a441" stroke="#fff" stroke-width="4"/><text x="22" y="8" fill="#07111f">JAIPUR</text></g>
    <g transform="translate(516 208)"><circle r="12" fill="#d9a441" stroke="#fff" stroke-width="4"/><text x="22" y="8" fill="#07111f">DELHI</text></g>
    <g transform="translate(828 368)"><circle r="12" fill="#d9a441" stroke="#fff" stroke-width="4"/><text x="22" y="8" fill="#07111f">KOLKATA</text></g>
    <g transform="translate(780 272)"><circle r="12" fill="#d9a441" stroke="#fff" stroke-width="4"/><text x="22" y="8" fill="#07111f">SILIGURI</text></g>
    <g transform="translate(744 496)"><circle r="12" fill="#d9a441" stroke="#fff" stroke-width="4"/><text x="22" y="8" fill="#07111f">VIZAG</text></g>
  </g>
  <rect y="800" width="1200" height="100" fill="#07111f"/>
  <text x="600" y="864" text-anchor="middle" font-family="Georgia, serif" font-size="48" font-weight="900" letter-spacing="6" fill="#ffffff">INDIAN OPERATIONS</text>
</svg>
