<svg xmlns="http://www.w3.org/2000/svg" width="1200" height="760" viewBox="0 0 1200 760"><rect width="1200" height="760" fill="#f8fafc"/><rect x="54" y="54" width="1092" height="652" rx="28" fill="#07111f"/><g fill="#123f61" stroke="#d9a441" stroke-width="14"><rect x="220" y="250" width="180" height="354"/><rect x="486" y="182" width="180" height="422"/><rect x="752" y="300" width="180" height="304"/></g><g fill="#fff" opacity=".82"><rect x="260" y="298" width="42" height="42"/><rect x="318" y="298" width="42" height="42"/><rect x="526" y="232" width="42" height="42"/><rect x="584" y="232" width="42" height="42"/><rect x="792" y="350" width="42" height="42"/><rect x="850" y="350" width="42" height="42"/><rect x="260" y="372" width="42" height="42"/><rect x="526" y="306" width="42" height="42"/><rect x="792" y="424" width="42" height="42"/></g><path d="M174 604h852" stroke="#d9a441" stroke-width="22" stroke-linecap="round"/><text x="86" y="132" fill="#d9a441" font-family="Arial,Helvetica,sans-serif" font-size="34" font-weight="900" letter-spacing="5">CONSTRUCTION</text></svg>
