<svg xmlns="http://www.w3.org/2000/svg" width="1200" height="760" viewBox="0 0 1200 760"><rect width="1200" height="760" fill="#f8fafc"/><rect x="54" y="54" width="1092" height="652" rx="28" fill="#07111f"/><g fill="#123f61" stroke="#d9a441" stroke-width="14"><path d="M214 604V256l88-74 88 74v348z"/><path d="M504 604V178h150v426z"/><path d="M750 604V302h166v302z"/></g><g stroke="#fff" stroke-width="14" opacity=".72"><path d="M180 604h850M270 318h75M270 390h75M270 462h75M536 250h86M536 322h86M536 394h86M536 466h86M784 374h98M784 446h98"/></g><path d="M420 536c96-88 192-88 288 0s192 88 288 0" fill="none" stroke="#d9a441" stroke-width="18" stroke-linecap="round"/><text x="86" y="132" fill="#d9a441" font-family="Arial,Helvetica,sans-serif" font-size="32" font-weight="900" letter-spacing="4">REFINERY / SHUTDOWN</text></svg>
